<svg width="271" height="54" viewBox="0 0 271 54" fill="none" xmlns="http://www.w3.org/2000/svg">
<path d="M54 51.9468L45.0952 43.0421C46.5061 41.4472 47.6752 39.6709 48.5682 37.7501C49.5083 35.7277 50.1341 33.5771 50.4276 31.3586C50.7196 29.1527 50.678 26.9227 50.3044 24.7302C49.9276 22.5178 49.2194 20.3875 48.1996 18.3979C47.1559 16.361 45.7973 14.4985 44.1619 12.8621L43.2046 11.9042L42.2472 12.8621C42.0531 13.0565 41.8616 13.2551 41.6781 13.4527C40.1015 15.1494 38.8106 17.0668 37.8412 19.152C36.9011 21.1747 36.2753 23.3252 35.9819 25.5435C35.6898 27.7493 35.7311 29.9793 36.1049 32.1719C36.2455 32.9976 36.4324 33.8117 36.6645 34.6117L30.8631 28.8103C31.7389 27.7563 32.4776 26.5706 33.0423 25.273C34.6132 21.6639 34.6844 17.6591 33.2432 13.9965C31.8018 10.3339 29.0205 7.45165 25.4114 5.88088L11.8999 0L10.5802 3.03247H3.22676V10.1924L0 11.6199C0 11.6199 5.77994 24.6896 5.81859 24.7879C7.25982 28.4506 10.0413 31.3328 13.6504 32.9036C15.522 33.7181 17.4981 34.1313 19.524 34.1313C23.0403 34.1313 26.3535 32.8825 28.9494 30.725L52.0856 53.8613L54 51.9468ZM38.6658 25.8983C38.9231 23.9522 39.4717 22.0662 40.2963 20.293C41.0504 18.6706 42.0272 17.1634 43.2046 15.8042C44.2202 16.9768 45.0871 18.2596 45.7906 19.6324C46.6846 21.3764 47.3052 23.2444 47.6359 25.1846C47.9637 27.1091 48.0003 29.0668 47.744 31.0031C47.4865 32.9494 46.9378 34.8353 46.1134 36.6086C45.3594 38.2308 44.3824 39.7379 43.205 41.0971C42.1894 39.9244 41.3225 38.6417 40.619 37.2691C39.725 35.5245 39.1041 33.6563 38.7737 31.7166C38.4455 29.7925 38.4094 27.8348 38.6658 25.8983ZM5.934 5.73962H9.40218L8.47456 7.87041L5.93382 8.99453V5.73962H5.934ZM6.87882 11.5371L6.0195 13.5115C5.60471 14.4644 5.29747 15.4454 5.09206 16.4399L3.57097 13.0008L6.87882 11.5371ZM14.7307 30.4213C11.7847 29.1393 9.51406 26.7865 8.33762 23.7968C7.16118 20.807 7.2195 17.5379 8.50182 14.5919L13.3019 3.56276L24.3311 8.36303C27.2769 9.64526 29.5474 11.9979 30.7241 14.9876C31.9006 17.9773 31.8423 21.2464 30.5602 24.1924C28.648 28.5855 24.3162 31.4242 19.5241 31.4242C17.8721 31.4241 16.2593 31.0867 14.7307 30.4213Z" fill="#972828"/>
<path d="M76.192 17.344H79.168L84.32 36.16H84.384L89.952 17.344H92.96L98.496 36.16H98.56L103.808 17.344H106.624L99.968 40H97.056L91.456 20.8H91.392L85.76 40H82.816L76.192 17.344ZM106.504 32.512C106.504 31.3387 106.707 30.272 107.112 29.312C107.517 28.352 108.072 27.5307 108.776 26.848C109.48 26.144 110.323 25.6 111.304 25.216C112.285 24.832 113.352 24.64 114.504 24.64C115.656 24.64 116.723 24.832 117.704 25.216C118.685 25.6 119.528 26.144 120.232 26.848C120.936 27.5307 121.491 28.352 121.896 29.312C122.301 30.272 122.504 31.3387 122.504 32.512C122.504 33.6853 122.301 34.752 121.896 35.712C121.491 36.672 120.936 37.504 120.232 38.208C119.528 38.8907 118.685 39.424 117.704 39.808C116.723 40.192 115.656 40.384 114.504 40.384C113.352 40.384 112.285 40.192 111.304 39.808C110.323 39.424 109.48 38.8907 108.776 38.208C108.072 37.504 107.517 36.672 107.112 35.712C106.707 34.752 106.504 33.6853 106.504 32.512ZM109.192 32.512C109.192 33.3013 109.309 34.0373 109.544 34.72C109.8 35.3813 110.163 35.968 110.632 36.48C111.101 36.9707 111.656 37.3653 112.296 37.664C112.957 37.9413 113.693 38.08 114.504 38.08C115.315 38.08 116.04 37.9413 116.68 37.664C117.341 37.3653 117.907 36.9707 118.376 36.48C118.845 35.968 119.197 35.3813 119.432 34.72C119.688 34.0373 119.816 33.3013 119.816 32.512C119.816 31.7227 119.688 30.9973 119.432 30.336C119.197 29.6533 118.845 29.0667 118.376 28.576C117.907 28.064 117.341 27.6693 116.68 27.392C116.04 27.0933 115.315 26.944 114.504 26.944C113.693 26.944 112.957 27.0933 112.296 27.392C111.656 27.6693 111.101 28.064 110.632 28.576C110.163 29.0667 109.8 29.6533 109.544 30.336C109.309 30.9973 109.192 31.7227 109.192 32.512ZM126.368 28.576C126.368 27.8933 126.347 27.2533 126.304 26.656C126.261 26.0587 126.24 25.5147 126.24 25.024H128.608C128.608 25.4293 128.619 25.8347 128.64 26.24C128.661 26.6453 128.672 27.0613 128.672 27.488H128.736C128.907 27.1253 129.141 26.7733 129.44 26.432C129.76 26.0907 130.133 25.792 130.56 25.536C130.987 25.2587 131.467 25.0453 132 24.896C132.533 24.7253 133.109 24.64 133.728 24.64C133.899 24.64 134.069 24.6507 134.24 24.672C134.411 24.6933 134.581 24.736 134.752 24.8L134.592 27.328C134.165 27.2 133.717 27.136 133.248 27.136C131.712 27.136 130.592 27.6373 129.888 28.64C129.205 29.6213 128.864 30.976 128.864 32.704V40H126.368V28.576ZM137.618 15.808H140.114V31.616L146.93 25.024H150.482L143.25 31.84L151.218 40H147.538L140.114 32.128V40H137.618V15.808ZM154.834 35.264C155.389 36.096 156.093 36.7147 156.946 37.12C157.821 37.504 158.717 37.696 159.634 37.696C160.146 37.696 160.669 37.6213 161.202 37.472C161.735 37.3013 162.215 37.056 162.642 36.736C163.09 36.416 163.453 36.0213 163.73 35.552C164.007 35.0827 164.146 34.5387 164.146 33.92C164.146 33.0453 163.869 32.384 163.314 31.936C162.759 31.4667 162.066 31.0827 161.234 30.784C160.423 30.464 159.527 30.1653 158.546 29.888C157.586 29.5893 156.69 29.184 155.858 28.672C155.047 28.16 154.365 27.4773 153.81 26.624C153.255 25.7493 152.978 24.576 152.978 23.104C152.978 22.4427 153.117 21.7387 153.394 20.992C153.693 20.2453 154.151 19.5627 154.77 18.944C155.389 18.3253 156.178 17.8133 157.138 17.408C158.119 16.9813 159.293 16.768 160.658 16.768C161.895 16.768 163.079 16.9387 164.21 17.28C165.341 17.6213 166.333 18.3147 167.186 19.36L164.69 21.632C164.306 21.0347 163.762 20.5547 163.058 20.192C162.354 19.8293 161.554 19.648 160.658 19.648C159.805 19.648 159.09 19.7653 158.514 20C157.959 20.2133 157.511 20.5013 157.17 20.864C156.829 21.2053 156.583 21.5787 156.434 21.984C156.306 22.3893 156.242 22.7627 156.242 23.104C156.242 24.064 156.519 24.8 157.074 25.312C157.629 25.824 158.311 26.24 159.122 26.56C159.954 26.88 160.85 27.168 161.81 27.424C162.791 27.68 163.687 28.0427 164.498 28.512C165.33 28.96 166.023 29.5787 166.578 30.368C167.133 31.136 167.41 32.2027 167.41 33.568C167.41 34.656 167.197 35.6373 166.77 36.512C166.365 37.3867 165.81 38.1227 165.106 38.72C164.402 39.3173 163.57 39.776 162.61 40.096C161.65 40.416 160.626 40.576 159.538 40.576C158.087 40.576 156.711 40.32 155.41 39.808C154.109 39.296 153.074 38.5067 152.306 37.44L154.834 35.264ZM171.207 24.832H174.087V27.008H174.151C174.706 26.1973 175.463 25.568 176.423 25.12C177.405 24.672 178.407 24.448 179.431 24.448C180.605 24.448 181.661 24.6507 182.599 25.056C183.559 25.4613 184.37 26.0267 185.031 26.752C185.714 27.4773 186.237 28.3307 186.599 29.312C186.962 30.272 187.143 31.3067 187.143 32.416C187.143 33.5467 186.962 34.6027 186.599 35.584C186.237 36.544 185.714 37.3867 185.031 38.112C184.37 38.816 183.559 39.3707 182.599 39.776C181.661 40.1813 180.605 40.384 179.431 40.384C178.343 40.384 177.319 40.16 176.359 39.712C175.399 39.2427 174.663 38.6133 174.151 37.824H174.087V49.024H171.207V24.832ZM179.079 27.136C178.311 27.136 177.618 27.2747 176.999 27.552C176.381 27.808 175.858 28.1707 175.431 28.64C175.005 29.088 174.674 29.6427 174.439 30.304C174.205 30.944 174.087 31.648 174.087 32.416C174.087 33.184 174.205 33.8987 174.439 34.56C174.674 35.2 175.005 35.7547 175.431 36.224C175.858 36.672 176.381 37.0347 176.999 37.312C177.618 37.568 178.311 37.696 179.079 37.696C179.847 37.696 180.541 37.568 181.159 37.312C181.778 37.0347 182.301 36.672 182.727 36.224C183.154 35.7547 183.485 35.2 183.719 34.56C183.954 33.8987 184.071 33.184 184.071 32.416C184.071 31.648 183.954 30.944 183.719 30.304C183.485 29.6427 183.154 29.088 182.727 28.64C182.301 28.1707 181.778 27.808 181.159 27.552C180.541 27.2747 179.847 27.136 179.079 27.136ZM193.106 32.416C193.106 33.184 193.223 33.8987 193.458 34.56C193.692 35.2 194.023 35.7547 194.45 36.224C194.876 36.672 195.399 37.0347 196.018 37.312C196.636 37.568 197.33 37.696 198.098 37.696C198.866 37.696 199.559 37.568 200.178 37.312C200.796 37.0347 201.319 36.672 201.746 36.224C202.172 35.7547 202.503 35.2 202.738 34.56C202.972 33.8987 203.09 33.184 203.09 32.416C203.09 31.648 202.972 30.944 202.738 30.304C202.503 29.6427 202.172 29.088 201.746 28.64C201.319 28.1707 200.796 27.808 200.178 27.552C199.559 27.2747 198.866 27.136 198.098 27.136C197.33 27.136 196.636 27.2747 196.018 27.552C195.399 27.808 194.876 28.1707 194.45 28.64C194.023 29.088 193.692 29.6427 193.458 30.304C193.223 30.944 193.106 31.648 193.106 32.416ZM190.034 32.416C190.034 31.3067 190.236 30.272 190.642 29.312C191.068 28.352 191.644 27.5093 192.37 26.784C193.095 26.0587 193.948 25.4933 194.93 25.088C195.911 24.6613 196.967 24.448 198.098 24.448C199.228 24.448 200.284 24.6613 201.266 25.088C202.247 25.4933 203.1 26.0587 203.826 26.784C204.551 27.5093 205.116 28.352 205.522 29.312C205.948 30.272 206.162 31.3067 206.162 32.416C206.162 33.5253 205.948 34.5707 205.522 35.552C205.116 36.512 204.551 37.3547 203.826 38.08C203.1 38.784 202.247 39.3493 201.266 39.776C200.284 40.1813 199.228 40.384 198.098 40.384C196.967 40.384 195.911 40.1813 194.93 39.776C193.948 39.3493 193.095 38.784 192.37 38.08C191.644 37.3547 191.068 36.512 190.642 35.552C190.236 34.5707 190.034 33.5253 190.034 32.416ZM209.77 24.832H212.65V27.168H212.714C213.076 26.3573 213.706 25.7067 214.602 25.216C215.498 24.704 216.532 24.448 217.706 24.448C218.431 24.448 219.124 24.5653 219.786 24.8C220.468 25.0133 221.055 25.3547 221.546 25.824C222.058 26.2933 222.463 26.9013 222.762 27.648C223.06 28.3733 223.21 29.2373 223.21 30.24V40H220.33V31.04C220.33 30.336 220.234 29.7387 220.042 29.248C219.85 28.736 219.594 28.3307 219.274 28.032C218.954 27.712 218.58 27.488 218.154 27.36C217.748 27.2107 217.322 27.136 216.874 27.136C216.276 27.136 215.722 27.232 215.21 27.424C214.698 27.616 214.25 27.9253 213.866 28.352C213.482 28.7573 213.183 29.28 212.97 29.92C212.756 30.56 212.65 31.3173 212.65 32.192V40H209.77V24.832ZM235.615 28.64C235.274 28.2133 234.847 27.8613 234.335 27.584C233.844 27.2853 233.236 27.136 232.511 27.136C231.828 27.136 231.231 27.2853 230.719 27.584C230.228 27.8613 229.983 28.2773 229.983 28.832C229.983 29.28 230.122 29.6427 230.399 29.92C230.698 30.1973 231.039 30.4213 231.423 30.592C231.828 30.7627 232.255 30.8907 232.703 30.976C233.151 31.0613 233.535 31.136 233.855 31.2C234.474 31.3493 235.05 31.5307 235.583 31.744C236.138 31.9573 236.607 32.2347 236.991 32.576C237.396 32.9173 237.706 33.3333 237.919 33.824C238.154 34.3147 238.271 34.912 238.271 35.616C238.271 36.4693 238.09 37.2053 237.727 37.824C237.364 38.4213 236.895 38.912 236.319 39.296C235.743 39.68 235.082 39.9573 234.335 40.128C233.61 40.2987 232.874 40.384 232.127 40.384C230.868 40.384 229.759 40.192 228.799 39.808C227.86 39.424 227.018 38.72 226.271 37.696L228.447 35.904C228.916 36.3733 229.439 36.7893 230.015 37.152C230.591 37.5147 231.295 37.696 232.127 37.696C232.49 37.696 232.852 37.664 233.215 37.6C233.599 37.5147 233.93 37.3973 234.207 37.248C234.506 37.0773 234.74 36.8747 234.911 36.64C235.103 36.384 235.199 36.096 235.199 35.776C235.199 35.3493 235.06 34.9973 234.783 34.72C234.527 34.4427 234.207 34.2293 233.823 34.08C233.46 33.9093 233.066 33.7813 232.639 33.696C232.234 33.5893 231.871 33.504 231.551 33.44C230.932 33.2907 230.346 33.12 229.791 32.928C229.236 32.736 228.746 32.48 228.319 32.16C227.892 31.84 227.551 31.4347 227.295 30.944C227.039 30.4533 226.911 29.8453 226.911 29.12C226.911 28.3307 227.071 27.648 227.391 27.072C227.732 26.4747 228.17 25.984 228.703 25.6C229.258 25.216 229.876 24.928 230.559 24.736C231.263 24.544 231.967 24.448 232.671 24.448C233.695 24.448 234.676 24.64 235.615 25.024C236.554 25.408 237.3 26.048 237.855 26.944L235.615 28.64ZM244.106 32.416C244.106 33.184 244.223 33.8987 244.458 34.56C244.692 35.2 245.023 35.7547 245.45 36.224C245.876 36.672 246.399 37.0347 247.018 37.312C247.636 37.568 248.33 37.696 249.098 37.696C249.866 37.696 250.559 37.568 251.178 37.312C251.796 37.0347 252.319 36.672 252.746 36.224C253.172 35.7547 253.503 35.2 253.738 34.56C253.972 33.8987 254.09 33.184 254.09 32.416C254.09 31.648 253.972 30.944 253.738 30.304C253.503 29.6427 253.172 29.088 252.746 28.64C252.319 28.1707 251.796 27.808 251.178 27.552C250.559 27.2747 249.866 27.136 249.098 27.136C248.33 27.136 247.636 27.2747 247.018 27.552C246.399 27.808 245.876 28.1707 245.45 28.64C245.023 29.088 244.692 29.6427 244.458 30.304C244.223 30.944 244.106 31.648 244.106 32.416ZM241.034 32.416C241.034 31.3067 241.236 30.272 241.642 29.312C242.068 28.352 242.644 27.5093 243.37 26.784C244.095 26.0587 244.948 25.4933 245.93 25.088C246.911 24.6613 247.967 24.448 249.098 24.448C250.228 24.448 251.284 24.6613 252.266 25.088C253.247 25.4933 254.1 26.0587 254.826 26.784C255.551 27.5093 256.116 28.352 256.522 29.312C256.948 30.272 257.162 31.3067 257.162 32.416C257.162 33.5253 256.948 34.5707 256.522 35.552C256.116 36.512 255.551 37.3547 254.826 38.08C254.1 38.784 253.247 39.3493 252.266 39.776C251.284 40.1813 250.228 40.384 249.098 40.384C247.967 40.384 246.911 40.1813 245.93 39.776C244.948 39.3493 244.095 38.784 243.37 38.08C242.644 37.3547 242.068 36.512 241.642 35.552C241.236 34.5707 241.034 33.5253 241.034 32.416ZM260.77 24.832H263.65V27.168H263.714C263.906 26.7627 264.162 26.4 264.482 26.08C264.802 25.7387 265.154 25.4507 265.538 25.216C265.943 24.9813 266.38 24.8 266.85 24.672C267.319 24.5227 267.788 24.448 268.258 24.448C268.727 24.448 269.154 24.512 269.538 24.64L269.41 27.744C269.175 27.68 268.94 27.6267 268.706 27.584C268.471 27.5413 268.236 27.52 268.002 27.52C266.594 27.52 265.516 27.9147 264.77 28.704C264.023 29.4933 263.65 30.72 263.65 32.384V40H260.77V24.832Z" fill="#972828"/>
</svg>
